<svg width="610" height="610" fill="none" xmlns="http://www.w3.org/2000/svg"><path d="M292.5 7.217a25 25 0 0 1 25 0l239.138 138.066a25 25 0 0 1 12.5 21.651v276.132a25 25 0 0 1-12.5 21.651L317.5 602.783a25 25 0 0 1-25 0L53.362 464.717a25 25 0 0 1-12.5-21.651V166.934a25 25 0 0 1 12.5-21.651L292.5 7.217z" fill="#6B4785"/><path d="M295 90.773a20 20 0 0 1 20 0l170.526 98.453a20.002 20.002 0 0 1 10 17.321v196.906a20.002 20.002 0 0 1-10 17.321L315 519.226a19.998 19.998 0 0 1-20 0l-170.526-98.453a19.999 19.999 0 0 1-10-17.32V206.547a20.002 20.002 0 0 1 10-17.321L295 90.773z" fill="#A2A6D2"/><path d="M297.5 184.33a15.002 15.002 0 0 1 15 0l93.253 53.84a14.999 14.999 0 0 1 7.5 12.99v107.68a14.999 14.999 0 0 1-7.5 12.99L312.5 425.67a15.002 15.002 0 0 1-15 0l-93.253-53.84a14.999 14.999 0 0 1-7.5-12.99V251.16a14.999 14.999 0 0 1 7.5-12.99l93.253-53.84z" fill="#DEFAF3"/></svg>